<?xml version="1.0" standalone="no"?>
<!DOCTYPE svg PUBLIC "-//W3C//DTD SVG 20010904//EN"
 "http://www.w3.org/TR/2001/REC-SVG-20010904/DTD/svg10.dtd">
<svg version="1.0" xmlns="http://www.w3.org/2000/svg"
 width="512.000000pt" height="512.000000pt" viewBox="0 0 512.000000 512.000000"
 preserveAspectRatio="xMidYMid meet">

<g transform="translate(0.000000,512.000000) scale(0.100000,-0.100000)"
fill="#113f55" stroke="none">
<path d="M612 5100 c-110 -29 -187 -74 -272 -160 -87 -86 -131 -163 -160 -276
-20 -76 -20 -118 -20 -2104 0 -1986 0 -2028 20 -2104 29 -113 73 -190 160
-276 86 -87 163 -131 276 -160 74 -19 113 -20 881 -20 703 0 808 2 841 15 155
65 165 282 17 363 -27 15 -111 17 -846 22 l-815 5 -41 27 c-22 15 -51 44 -64
65 l-24 38 0 2025 0 2025 24 38 c13 21 42 50 64 65 l41 27 733 3 733 3 0 -134
c0 -229 46 -354 180 -487 86 -87 163 -131 276 -160 69 -18 111 -20 411 -20
l333 0 0 -488 0 -489 23 -44 c71 -135 254 -145 342 -20 l30 43 3 635 c2 536 0
650 -13 725 -69 398 -351 704 -750 811 -79 21 -89 21 -1195 24 -1073 2 -1118
1 -1188 -17z m2273 -395 c114 -24 209 -77 295 -164 68 -68 140 -177 140 -210
0 -9 -80 -11 -313 -9 l-314 3 -40 27 c-22 15 -51 44 -64 65 -22 34 -24 52 -27
171 l-4 132 129 0 c73 0 158 -7 198 -15z"/>
<path d="M1092 3189 c-47 -14 -109 -79 -123 -131 -23 -89 12 -182 88 -229 l38
-24 866 0 865 0 41 27 c62 41 88 90 88 168 0 78 -26 127 -88 168 l-41 27 -850
2 c-519 1 -864 -2 -884 -8z"/>
<path d="M1092 2389 c-47 -14 -109 -80 -123 -131 -23 -89 12 -182 88 -229 l38
-24 565 0 565 0 38 24 c21 13 50 42 65 64 23 34 27 52 27 107 0 55 -4 73 -27
107 -15 22 -44 51 -65 64 l-38 24 -550 2 c-330 1 -563 -2 -583 -8z"/>
<path d="M3640 2395 c-8 -2 -49 -9 -90 -15 -358 -58 -694 -309 -862 -645 -89
-177 -122 -320 -123 -530 0 -163 11 -239 56 -377 97 -300 319 -557 607 -702
85 -43 216 -87 317 -107 103 -21 349 -18 455 5 362 78 668 314 834 644 84 168
121 329 121 532 0 83 -6 175 -14 215 -95 479 -451 849 -921 956 -78 18 -338
35 -380 24z m310 -418 c209 -57 367 -171 481 -345 49 -75 78 -142 107 -247 23
-82 23 -288 0 -370 -24 -87 -57 -171 -76 -195 -17 -20 -28 -9 -561 524 l-544
544 34 21 c39 24 161 66 234 80 67 13 257 6 325 -12z m-330 -922 c299 -299
542 -546 540 -548 -29 -26 -182 -80 -274 -96 -300 -54 -624 92 -797 357 -127
194 -162 446 -92 667 20 64 64 165 72 165 3 0 251 -245 551 -545z"/>
<path d="M1092 1589 c-47 -14 -109 -80 -123 -131 -23 -89 12 -182 88 -229 l38
-24 465 0 465 0 38 24 c21 13 50 42 65 64 23 34 27 52 27 107 0 55 -4 73 -27
107 -15 22 -44 51 -65 64 l-38 24 -450 2 c-267 1 -463 -2 -483 -8z"/>
</g>
</svg>
